# Blender 3.5.1
# www.blender.org
mtllib bollfield2.mtl
o 円柱.002
v 0.389223 -0.000004 -20.293867
v 0.389223 2.992176 -20.293867
v 4.303612 -0.000004 -19.908333
v 4.303612 2.992176 -19.908333
v 8.067574 -0.000002 -18.766548
v 8.067574 2.992176 -18.766548
v 11.536460 -0.000002 -16.912390
v 11.536460 2.992176 -16.912390
v 14.576963 -0.000002 -14.417112
v 14.576963 2.992176 -14.417112
v 17.072241 -0.000002 -11.376609
v 17.072241 2.992176 -11.376609
v 18.926399 -0.000002 -7.907722
v 18.926399 2.992176 -7.907722
v 20.068184 -0.000000 -4.143761
v 20.068184 2.992178 -4.143761
v 20.453718 -0.000000 -0.229372
v 20.453718 2.992178 -0.229372
v 20.068184 0.000000 3.685017
v 20.068184 2.992178 3.685017
v 18.926399 0.000002 7.448978
v 18.926399 2.992178 7.448978
v 17.072241 0.000002 10.917865
v 17.072241 2.992180 10.917865
v 14.576963 0.000002 13.958368
v 14.576963 2.992180 13.958368
v 11.536460 0.000002 16.453646
v 11.536460 2.992180 16.453646
v 8.067574 0.000002 18.307804
v 8.067574 2.992180 18.307804
v 4.303612 0.000002 19.449589
v 4.303612 2.992180 19.449589
v 0.389223 0.000002 19.835123
v 0.389223 2.992180 19.835123
v -3.525166 0.000002 19.449589
v -3.525166 2.992180 19.449589
v -7.289127 0.000002 18.307804
v -7.289127 2.992180 18.307804
v -10.758014 0.000002 16.453646
v -10.758014 2.992180 16.453646
v -13.798517 0.000002 13.958368
v -13.798517 2.992180 13.958368
v -16.293795 0.000002 10.917865
v -16.293795 2.992180 10.917865
v -18.147953 0.000002 7.448978
v -18.147953 2.992178 7.448978
v -19.289738 0.000000 3.685017
v -19.289738 2.992178 3.685017
v -19.675272 -0.000000 -0.229372
v -19.675272 2.992178 -0.229372
v -19.289738 -0.000000 -4.143761
v -19.289738 2.992178 -4.143761
v -18.147953 -0.000002 -7.907722
v -18.147953 2.992176 -7.907722
v -16.293795 -0.000002 -11.376609
v -16.293795 2.992176 -11.376609
v -13.798517 -0.000002 -14.417112
v -13.798517 2.992176 -14.417112
v -10.758014 -0.000002 -16.912390
v -10.758014 2.992176 -16.912390
v -7.289127 -0.000002 -18.766548
v -7.289127 2.992176 -18.766548
v -3.525166 -0.000004 -19.908333
v -3.525166 2.992176 -19.908333
v 7.365558 2.992176 -17.071732
v 5.409580 2.992176 -12.349584
v 4.081304 2.992176 -17.115381
v 2.700390 2.992176 -16.543388
v 2.741000 2.992176 -12.334210
v 2.696276 2.992176 -17.133162
v 7.541630 2.992176 -12.360947
v 7.546889 2.992176 -17.068615
v -8.197993 2.992178 -4.415370
v -3.665938 2.992178 -4.365418
v -3.612244 2.992178 0.745184
v -8.024630 2.992178 0.805393
v -11.679049 2.992180 15.374552
v -8.121572 2.992180 16.298105
v -10.441051 2.992180 10.698385
v -8.415700 2.992180 10.783783
v -12.056314 2.992180 10.621491
v 11.642553 2.992178 7.825587
v 11.689122 2.992178 3.699570
v 7.631066 2.992178 3.584107
v 7.509705 2.992178 7.779555
vn 0.0980 -0.0000 -0.9952
vn 0.2903 -0.0000 -0.9569
vn 0.4714 -0.0000 -0.8819
vn 0.6344 -0.0000 -0.7730
vn 0.7730 -0.0000 -0.6344
vn 0.8819 -0.0000 -0.4714
vn 0.9569 -0.0000 -0.2903
vn 0.9952 -0.0000 -0.0980
vn 0.9952 -0.0000 0.0980
vn 0.9569 -0.0000 0.2903
vn 0.8819 -0.0000 0.4714
vn 0.7730 -0.0000 0.6344
vn 0.6344 -0.0000 0.7730
vn 0.4714 -0.0000 0.8819
vn 0.2903 -0.0000 0.9569
vn 0.0980 -0.0000 0.9952
vn -0.0980 -0.0000 0.9952
vn -0.2903 -0.0000 0.9569
vn -0.4714 -0.0000 0.8819
vn -0.6344 -0.0000 0.7730
vn -0.7730 -0.0000 0.6344
vn -0.8819 -0.0000 0.4714
vn -0.9569 -0.0000 0.2903
vn -0.9952 -0.0000 0.0980
vn -0.9952 -0.0000 -0.0980
vn -0.9569 -0.0000 -0.2903
vn -0.8819 -0.0000 -0.4714
vn -0.7730 -0.0000 -0.6344
vn -0.6344 -0.0000 -0.7730
vn -0.4714 -0.0000 -0.8819
vn -0.0000 1.0000 -0.0000
vn -0.2903 -0.0000 -0.9569
vn -0.0980 -0.0000 -0.9952
vt 1.000000 0.500000
vt 0.000000 0.500000
vt 1.000000 1.000000
vt 0.000000 1.000000
vt 0.250000 0.490000
vt 0.968750 0.500000
vt 0.968750 1.000000
vt 0.296822 0.485388
vt 0.937500 0.500000
vt 0.937500 1.000000
vt 0.341844 0.471731
vt 0.906250 0.500000
vt 0.906250 1.000000
vt 0.383337 0.449553
vt 0.875000 0.500000
vt 0.875000 1.000000
vt 0.419706 0.419706
vt 0.843750 0.500000
vt 0.843750 1.000000
vt 0.449553 0.383337
vt 0.812500 0.500000
vt 0.812500 1.000000
vt 0.471731 0.341844
vt 0.781250 0.500000
vt 0.781250 1.000000
vt 0.485388 0.296822
vt 0.750000 0.500000
vt 0.750000 1.000000
vt 0.490000 0.250000
vt 0.718750 0.500000
vt 0.718750 1.000000
vt 0.485388 0.203178
vt 0.687500 0.500000
vt 0.687500 1.000000
vt 0.471731 0.158156
vt 0.656250 0.500000
vt 0.656250 1.000000
vt 0.449553 0.116663
vt 0.625000 0.500000
vt 0.625000 1.000000
vt 0.419706 0.080294
vt 0.593750 0.500000
vt 0.593750 1.000000
vt 0.383337 0.050447
vt 0.562500 0.500000
vt 0.562500 1.000000
vt 0.341844 0.028269
vt 0.531250 0.500000
vt 0.531250 1.000000
vt 0.296822 0.014612
vt 0.500000 0.500000
vt 0.500000 1.000000
vt 0.250000 0.010000
vt 0.468750 0.500000
vt 0.468750 1.000000
vt 0.203178 0.014612
vt 0.437500 0.500000
vt 0.437500 1.000000
vt 0.158156 0.028269
vt 0.406250 0.500000
vt 0.406250 1.000000
vt 0.116663 0.050447
vt 0.375000 0.500000
vt 0.375000 1.000000
vt 0.080294 0.080294
vt 0.343750 0.500000
vt 0.343750 1.000000
vt 0.050447 0.116663
vt 0.312500 0.500000
vt 0.312500 1.000000
vt 0.028269 0.158156
vt 0.281250 0.500000
vt 0.281250 1.000000
vt 0.014612 0.203178
vt 0.250000 0.500000
vt 0.250000 1.000000
vt 0.010000 0.250000
vt 0.218750 0.500000
vt 0.218750 1.000000
vt 0.014612 0.296822
vt 0.187500 0.500000
vt 0.187500 1.000000
vt 0.028269 0.341844
vt 0.156250 0.500000
vt 0.156250 1.000000
vt 0.050447 0.383337
vt 0.125000 0.500000
vt 0.125000 1.000000
vt 0.080294 0.419706
vt 0.093750 0.500000
vt 0.093750 1.000000
vt 0.116663 0.449553
vt 0.062500 0.500000
vt 0.158156 0.471731
vt 0.062500 1.000000
vt 0.031250 0.500000
vt 0.203178 0.485388
vt 0.031250 1.000000
vt 0.333447 0.451459
vt 0.310051 0.394975
vt 0.294163 0.451981
vt 0.277645 0.445139
vt 0.278131 0.394791
vt 0.277596 0.452193
vt 0.335553 0.395111
vt 0.335616 0.451421
vt 0.147285 0.300070
vt 0.201495 0.299473
vt 0.202137 0.238343
vt 0.149358 0.237623
vt 0.105646 0.063355
vt 0.148199 0.052308
vt 0.120454 0.119288
vt 0.144681 0.118267
vt 0.101134 0.120208
vt 0.384606 0.153651
vt 0.385163 0.203004
vt 0.336623 0.204385
vt 0.335171 0.154202
s 0
usemtl マテリアル.034
f 2/3/1 3/6/1 1/1/1
f 4/7/2 5/9/2 3/6/2
f 6/10/3 7/12/3 5/9/3
f 8/13/4 9/15/4 7/12/4
f 10/16/5 11/18/5 9/15/5
f 12/19/6 13/21/6 11/18/6
f 14/22/7 15/24/7 13/21/7
f 16/25/8 17/27/8 15/24/8
f 18/28/9 19/30/9 17/27/9
f 20/31/10 21/33/10 19/30/10
f 22/34/11 23/36/11 21/33/11
f 24/37/12 25/39/12 23/36/12
f 26/40/13 27/42/13 25/39/13
f 28/43/14 29/45/14 27/42/14
f 30/46/15 31/48/15 29/45/15
f 32/49/16 33/51/16 31/48/16
f 34/52/17 35/54/17 33/51/17
f 36/55/18 37/57/18 35/54/18
f 38/58/19 39/60/19 37/57/19
f 40/61/20 41/63/20 39/60/20
f 42/64/21 43/66/21 41/63/21
f 44/67/22 45/69/22 43/66/22
f 46/70/23 47/72/23 45/69/23
f 48/73/24 49/75/24 47/72/24
f 50/76/25 51/78/25 49/75/25
f 52/79/26 53/81/26 51/78/26
f 54/82/27 55/84/27 53/81/27
f 56/85/28 57/87/28 55/84/28
f 58/88/29 59/90/29 57/87/29
f 60/91/30 61/93/30 59/90/30
f 38/59/31 22/35/31 82/116/31
f 62/95/32 63/96/32 61/93/32
f 64/98/33 1/2/33 63/96/33
f 2/3/1 4/7/1 3/6/1
f 4/7/2 6/10/2 5/9/2
f 6/10/3 8/13/3 7/12/3
f 8/13/4 10/16/4 9/15/4
f 10/16/5 12/19/5 11/18/5
f 12/19/6 14/22/6 13/21/6
f 14/22/7 16/25/7 15/24/7
f 16/25/8 18/28/8 17/27/8
f 18/28/9 20/31/9 19/30/9
f 20/31/10 22/34/10 21/33/10
f 22/34/11 24/37/11 23/36/11
f 24/37/12 26/40/12 25/39/12
f 26/40/13 28/43/13 27/42/13
f 28/43/14 30/46/14 29/45/14
f 30/46/15 32/49/15 31/48/15
f 32/49/16 34/52/16 33/51/16
f 34/52/17 36/55/17 35/54/17
f 36/55/18 38/58/18 37/57/18
f 38/58/19 40/61/19 39/60/19
f 40/61/20 42/64/20 41/63/20
f 42/64/21 44/67/21 43/66/21
f 44/67/22 46/70/22 45/69/22
f 46/70/23 48/73/23 47/72/23
f 48/73/24 50/76/24 49/75/24
f 50/76/25 52/79/25 51/78/25
f 52/79/26 54/82/26 53/81/26
f 54/82/27 56/85/27 55/84/27
f 56/85/28 58/88/28 57/87/28
f 58/88/29 60/91/29 59/90/29
f 60/91/30 62/95/30 61/93/30
f 6/11/31 4/8/31 2/5/31
f 2/5/31 64/97/31 62/94/31
f 62/94/31 60/92/31 58/89/31
f 58/89/31 56/86/31 54/83/31
f 54/83/31 52/80/31 50/77/31
f 50/77/31 48/74/31 54/83/31
f 48/74/31 46/71/31 54/83/31
f 46/71/31 44/68/31 42/65/31
f 40/62/31 77/111/31 42/65/31
f 38/59/31 36/56/31 30/47/31
f 36/56/31 34/53/31 30/47/31
f 34/53/31 32/50/31 30/47/31
f 30/47/31 28/44/31 26/41/31
f 26/41/31 24/38/31 22/35/31
f 22/35/31 20/32/31 14/23/31
f 20/32/31 18/29/31 14/23/31
f 18/29/31 16/26/31 14/23/31
f 14/23/31 12/20/31 10/17/31
f 10/17/31 8/14/31 6/11/31
f 2/5/31 68/102/31 70/104/31
f 2/5/31 62/94/31 54/83/31
f 62/94/31 58/89/31 54/83/31
f 46/71/31 42/65/31 54/83/31
f 81/115/31 79/113/31 54/83/31
f 30/47/31 26/41/31 38/59/31
f 26/41/31 22/35/31 38/59/31
f 14/23/31 10/17/31 22/35/31
f 10/17/31 6/11/31 22/35/31
f 6/11/31 67/101/31 65/99/31
f 62/95/32 64/98/32 63/96/32
f 64/98/33 2/4/33 1/2/33
f 68/102/31 69/103/31 66/100/31
f 73/107/31 74/108/31 69/103/31
f 67/101/31 70/104/31 68/102/31
f 71/105/31 65/99/31 66/100/31
f 75/109/31 76/110/31 80/114/31
f 78/112/31 77/111/31 38/59/31
f 38/59/31 85/119/31 84/118/31
f 22/35/31 83/117/31 82/116/31
f 82/116/31 85/119/31 38/59/31
f 40/62/31 38/59/31 77/111/31
f 67/101/31 6/11/31 2/5/31
f 2/5/31 54/83/31 68/102/31
f 70/104/31 67/101/31 2/5/31
f 54/83/31 42/65/31 81/115/31
f 42/65/31 77/111/31 81/115/31
f 75/109/31 66/100/31 74/108/31
f 66/100/31 69/103/31 74/108/31
f 69/103/31 68/102/31 73/107/31
f 68/102/31 54/83/31 73/107/31
f 71/105/31 72/106/31 65/99/31
f 76/110/31 73/107/31 54/83/31
f 54/83/31 79/113/31 76/110/31
f 79/113/31 80/114/31 76/110/31
f 80/114/31 78/112/31 38/59/31
f 38/59/31 66/100/31 75/109/31
f 38/59/31 75/109/31 80/114/31
f 83/117/31 22/35/31 71/105/31
f 22/35/31 6/11/31 71/105/31
f 6/11/31 65/99/31 72/106/31
f 71/105/31 66/100/31 84/118/31
f 66/100/31 38/59/31 84/118/31
f 6/11/31 72/106/31 71/105/31
f 84/118/31 83/117/31 71/105/31
l 9 15
l 25 31
