# Blender 3.5.1
# www.blender.org
mtllib Killwood.mtl
o 円柱
v 0.000000 -38.165619 -3.964119
v 0.000000 98.165611 -3.964129
v 0.773362 -38.165619 -3.887949
v 0.773362 98.165611 -3.887959
v 1.517004 -38.165619 -3.662368
v 1.517004 98.165611 -3.662378
v 2.202348 -38.165619 -3.296044
v 2.202348 98.165611 -3.296054
v 2.803057 -38.165619 -2.803054
v 2.803057 98.165611 -2.803064
v 3.296047 -38.165619 -2.202345
v 3.296047 98.165611 -2.202355
v 3.662371 -38.165619 -1.517001
v 3.662371 98.165611 -1.517011
v 3.887952 -38.165619 -0.773359
v 3.887952 98.165611 -0.773369
v 3.964122 -38.165619 0.000003
v 3.964122 98.165611 -0.000007
v 3.887952 -38.165619 0.773365
v 3.887952 98.165611 0.773355
v 3.662371 -38.165619 1.517007
v 3.662371 98.165611 1.516997
v 3.296047 -38.165619 2.202351
v 3.296047 98.165611 2.202341
v 2.803057 -38.165619 2.803060
v 2.803057 98.165611 2.803050
v 2.202348 -38.165619 3.296050
v 2.202348 98.165611 3.296040
v 1.517004 -38.165619 3.662374
v 1.517004 98.165611 3.662364
v 0.773362 -38.165619 3.887955
v 0.773362 98.165611 3.887945
v 0.000000 -38.165619 3.964125
v 0.000000 98.165611 3.964115
v -0.773362 -38.165619 3.887955
v -0.773362 98.165611 3.887945
v -1.517004 -38.165619 3.662374
v -1.517004 98.165611 3.662364
v -2.202348 -38.165619 3.296050
v -2.202348 98.165611 3.296040
v -2.803057 -38.165619 2.803060
v -2.803057 98.165611 2.803050
v -3.296047 -38.165619 2.202351
v -3.296047 98.165611 2.202341
v -3.662371 -38.165619 1.517007
v -3.662371 98.165611 1.516997
v -3.887952 -38.165619 0.773365
v -3.887952 98.165611 0.773355
v -3.964122 -38.165619 0.000003
v -3.964122 98.165611 -0.000007
v -3.887952 -38.165619 -0.773359
v -3.887952 98.165611 -0.773369
v -3.662371 -38.165619 -1.517001
v -3.662371 98.165611 -1.517011
v -3.296047 -38.165619 -2.202345
v -3.296047 98.165611 -2.202355
v -2.803057 -38.165619 -2.803054
v -2.803057 98.165611 -2.803064
v -2.202348 -38.165619 -3.296044
v -2.202348 98.165611 -3.296054
v -1.517004 -38.165619 -3.662368
v -1.517004 98.165611 -3.662378
v -0.773362 -38.165619 -3.887949
v -0.773362 98.165611 -3.887959
vn 0.0980 -0.0000 -0.9952
vn 0.2903 -0.0000 -0.9569
vn 0.4714 -0.0000 -0.8819
vn 0.6344 -0.0000 -0.7730
vn 0.7730 -0.0000 -0.6344
vn 0.8819 -0.0000 -0.4714
vn 0.9569 -0.0000 -0.2903
vn 0.9952 -0.0000 -0.0980
vn 0.9952 -0.0000 0.0980
vn 0.9569 -0.0000 0.2903
vn 0.8819 -0.0000 0.4714
vn 0.7730 -0.0000 0.6344
vn 0.6344 -0.0000 0.7730
vn 0.4714 -0.0000 0.8819
vn 0.2903 -0.0000 0.9569
vn 0.0980 -0.0000 0.9952
vn -0.0980 -0.0000 0.9952
vn -0.2903 -0.0000 0.9569
vn -0.4714 -0.0000 0.8819
vn -0.6344 -0.0000 0.7730
vn -0.7730 -0.0000 0.6344
vn -0.8819 -0.0000 0.4714
vn -0.9569 -0.0000 0.2903
vn -0.9952 -0.0000 0.0980
vn -0.9952 -0.0000 -0.0980
vn -0.9569 -0.0000 -0.2903
vn -0.8819 -0.0000 -0.4714
vn -0.7730 -0.0000 -0.6344
vn -0.6344 -0.0000 -0.7730
vn -0.4714 -0.0000 -0.8819
vn -0.0000 1.0000 -0.0000
vn -0.2903 -0.0000 -0.9569
vn -0.0980 -0.0000 -0.9952
vn -0.0000 -1.0000 -0.0000
vn -0.0000 1.0000 -0.0001
vn -0.0000 1.0000 0.0001
vt 1.000000 0.500000
vt 0.750000 0.490000
vt 0.000000 0.500000
vt 0.250000 0.490000
vt 1.000000 1.000000
vt 0.000000 1.000000
vt 0.796822 0.485388
vt 0.968750 0.500000
vt 0.296822 0.485388
vt 0.968750 1.000000
vt 0.841844 0.471731
vt 0.937500 0.500000
vt 0.341844 0.471731
vt 0.937500 1.000000
vt 0.883337 0.449553
vt 0.906250 0.500000
vt 0.383337 0.449553
vt 0.906250 1.000000
vt 0.919706 0.419706
vt 0.875000 0.500000
vt 0.875000 1.000000
vt 0.419706 0.419706
vt 0.949553 0.383337
vt 0.843750 0.500000
vt 0.843750 1.000000
vt 0.449553 0.383337
vt 0.971731 0.341844
vt 0.812500 0.500000
vt 0.471731 0.341844
vt 0.812500 1.000000
vt 0.985388 0.296822
vt 0.781250 0.500000
vt 0.485388 0.296822
vt 0.781250 1.000000
vt 0.990000 0.250000
vt 0.750000 0.500000
vt 0.490000 0.250000
vt 0.750000 1.000000
vt 0.985388 0.203178
vt 0.718750 0.500000
vt 0.485388 0.203178
vt 0.718750 1.000000
vt 0.971731 0.158156
vt 0.687500 0.500000
vt 0.471731 0.158156
vt 0.687500 1.000000
vt 0.949553 0.116663
vt 0.656250 0.500000
vt 0.656250 1.000000
vt 0.449553 0.116663
vt 0.919706 0.080294
vt 0.625000 0.500000
vt 0.625000 1.000000
vt 0.419706 0.080294
vt 0.883337 0.050447
vt 0.593750 0.500000
vt 0.593750 1.000000
vt 0.383337 0.050447
vt 0.841844 0.028269
vt 0.562500 0.500000
vt 0.562500 1.000000
vt 0.341844 0.028269
vt 0.796822 0.014612
vt 0.531250 0.500000
vt 0.531250 1.000000
vt 0.296822 0.014612
vt 0.750000 0.010000
vt 0.500000 0.500000
vt 0.500000 1.000000
vt 0.250000 0.010000
vt 0.703178 0.014612
vt 0.468750 0.500000
vt 0.468750 1.000000
vt 0.203178 0.014612
vt 0.658156 0.028269
vt 0.437500 0.500000
vt 0.437500 1.000000
vt 0.158156 0.028269
vt 0.616663 0.050447
vt 0.406250 0.500000
vt 0.406250 1.000000
vt 0.116663 0.050447
vt 0.580294 0.080294
vt 0.375000 0.500000
vt 0.375000 1.000000
vt 0.080294 0.080294
vt 0.550447 0.116663
vt 0.343750 0.500000
vt 0.343750 1.000000
vt 0.050447 0.116663
vt 0.528269 0.158156
vt 0.312500 0.500000
vt 0.312500 1.000000
vt 0.028269 0.158156
vt 0.514612 0.203178
vt 0.281250 0.500000
vt 0.014612 0.203178
vt 0.281250 1.000000
vt 0.510000 0.250000
vt 0.250000 0.500000
vt 0.010000 0.250000
vt 0.250000 1.000000
vt 0.514612 0.296822
vt 0.218750 0.500000
vt 0.014612 0.296822
vt 0.218750 1.000000
vt 0.528269 0.341844
vt 0.187500 0.500000
vt 0.028269 0.341844
vt 0.187500 1.000000
vt 0.550447 0.383337
vt 0.156250 0.500000
vt 0.050447 0.383337
vt 0.156250 1.000000
vt 0.580294 0.419706
vt 0.125000 0.500000
vt 0.080294 0.419706
vt 0.125000 1.000000
vt 0.616663 0.449553
vt 0.093750 0.500000
vt 0.116663 0.449553
vt 0.093750 1.000000
vt 0.658156 0.471731
vt 0.062500 0.500000
vt 0.158156 0.471731
vt 0.062500 1.000000
vt 0.703178 0.485388
vt 0.031250 0.500000
vt 0.203178 0.485388
vt 0.031250 1.000000
s 0
usemtl マテリアル
f 2/5/1 3/8/1 1/1/1
f 4/10/2 5/12/2 3/8/2
f 6/14/3 7/16/3 5/12/3
f 8/18/4 9/20/4 7/16/4
f 10/21/5 11/24/5 9/20/5
f 12/25/6 13/28/6 11/24/6
f 14/30/7 15/32/7 13/28/7
f 16/34/8 17/36/8 15/32/8
f 18/38/9 19/40/9 17/36/9
f 20/42/10 21/44/10 19/40/10
f 22/46/11 23/48/11 21/44/11
f 24/49/12 25/52/12 23/48/12
f 26/53/13 27/56/13 25/52/13
f 28/57/14 29/60/14 27/56/14
f 30/61/15 31/64/15 29/60/15
f 32/65/16 33/68/16 31/64/16
f 34/69/17 35/72/17 33/68/17
f 36/73/18 37/76/18 35/72/18
f 38/77/19 39/80/19 37/76/19
f 40/81/20 41/84/20 39/80/20
f 42/85/21 43/88/21 41/84/21
f 44/89/22 45/92/22 43/88/22
f 46/93/23 47/96/23 45/92/23
f 48/98/24 49/100/24 47/96/24
f 50/102/25 51/104/25 49/100/25
f 52/106/26 53/108/26 51/104/26
f 54/110/27 55/112/27 53/108/27
f 56/114/28 57/116/28 55/112/28
f 58/118/29 59/120/29 57/116/29
f 60/122/30 61/124/30 59/120/30
f 22/45/31 14/29/31 6/13/31
f 62/126/32 63/128/32 61/124/32
f 64/130/33 1/3/33 63/128/33
f 1/2/34 3/7/34 5/11/34 7/15/34 9/19/34 11/23/34 13/27/34 15/31/34 17/35/34 19/39/34 21/43/34 23/47/34 25/51/34 27/55/34 29/59/34 31/63/34 33/67/34 35/71/34 37/75/34 39/79/34 41/83/34 43/87/34 45/91/34 47/95/34 49/99/34 51/103/34 53/107/34 55/111/34 57/115/34 59/119/34 61/123/34 63/127/34
f 8/18/4 10/21/4 9/20/4
f 10/21/5 12/25/5 11/24/5
f 12/25/6 14/30/6 13/28/6
f 22/46/11 24/49/11 23/48/11
f 24/49/12 26/53/12 25/52/12
f 26/53/13 28/57/13 27/56/13
f 28/57/14 30/61/14 29/60/14
f 30/61/15 32/65/15 31/64/15
f 32/65/16 34/69/16 33/68/16
f 34/69/17 36/73/17 35/72/17
f 36/73/18 38/77/18 37/76/18
f 38/77/19 40/81/19 39/80/19
f 40/81/20 42/85/20 41/84/20
f 42/85/21 44/89/21 43/88/21
f 44/89/22 46/93/22 45/92/22
f 46/93/23 48/98/23 47/96/23
f 6/13/35 4/9/35 2/4/35
f 2/4/35 64/129/35 62/125/35
f 62/125/31 60/121/31 54/109/31
f 60/121/31 58/117/31 54/109/31
f 58/117/31 56/113/31 54/109/31
f 54/109/31 52/105/31 50/101/31
f 50/101/31 48/97/31 46/94/31
f 46/94/31 44/90/31 38/78/31
f 44/90/31 42/86/31 38/78/31
f 42/86/35 40/82/35 38/78/35
f 38/78/36 36/74/36 34/70/36
f 34/70/36 32/66/36 30/62/36
f 30/62/31 28/58/31 22/45/31
f 28/58/31 26/54/31 22/45/31
f 26/54/31 24/50/31 22/45/31
f 22/45/31 20/41/31 18/37/31
f 18/37/31 16/33/31 14/29/31
f 14/29/31 12/26/31 6/13/31
f 12/26/31 10/22/31 6/13/31
f 10/22/36 8/17/36 6/13/36
f 6/13/31 2/4/31 62/125/31
f 54/109/31 50/101/31 46/94/31
f 38/78/31 34/70/31 30/62/31
f 22/45/31 18/37/31 14/29/31
f 6/13/31 62/125/31 38/78/31
f 62/125/31 54/109/31 38/78/31
f 54/109/31 46/94/31 38/78/31
f 38/78/31 30/62/31 6/13/31
f 30/62/31 22/45/31 6/13/31
f 2/5/1 4/10/1 3/8/1
f 4/10/2 6/14/2 5/12/2
f 6/14/3 8/18/3 7/16/3
f 50/102/25 52/106/25 51/104/25
f 52/106/26 54/110/26 53/108/26
f 54/110/27 56/114/27 55/112/27
f 56/114/28 58/118/28 57/116/28
f 58/118/29 60/122/29 59/120/29
f 60/122/30 62/126/30 61/124/30
f 62/126/32 64/130/32 63/128/32
f 64/130/33 2/6/33 1/3/33
f 48/98/24 50/102/24 49/100/24
f 14/30/7 16/34/7 15/32/7
f 16/34/8 18/38/8 17/36/8
f 18/38/9 20/42/9 19/40/9
f 20/42/10 22/46/10 21/44/10
