# Blender 3.5.1
# www.blender.org
mtllib ClearCoin.mtl
o coin
v 0.000000 -0.463425 -4.391621
v -1.136639 -0.463425 -4.241972
v -2.195811 -0.463425 -3.803249
v -3.105333 -0.463425 -3.105333
v -3.803249 -0.463425 -2.195811
v -4.241972 -0.463425 -1.136639
v -4.391621 -0.463425 0.000000
v -4.241972 -0.463425 1.136639
v -3.803249 -0.463425 2.195811
v -3.105333 -0.463425 3.105333
v -2.195811 -0.463425 3.803249
v -1.136639 -0.463425 4.241972
v 0.000000 -0.463425 4.391621
v 1.136639 -0.463425 4.241972
v 2.195811 -0.463425 3.803249
v 3.105333 -0.463425 3.105333
v 3.803249 -0.463425 2.195811
v 4.241972 -0.463425 1.136639
v 4.391621 -0.463425 0.000000
v 4.241972 -0.463425 -1.136639
v 3.803249 -0.463425 -2.195811
v 3.105333 -0.463425 -3.105333
v 2.195811 -0.463425 -3.803249
v 1.136639 -0.463425 -4.241972
v 0.000000 0.463425 -4.391621
v -1.136639 0.463425 -4.241972
v -2.195811 0.463425 -3.803249
v -3.105333 0.463425 -3.105333
v -3.803249 0.463425 -2.195811
v -4.241972 0.463425 -1.136639
v -4.391621 0.463425 -0.000000
v -4.241972 0.463425 1.136639
v -3.803249 0.463425 2.195811
v -3.105333 0.463425 3.105333
v -2.195811 0.463425 3.803249
v -1.136639 0.463425 4.241972
v 0.000000 0.463425 4.391621
v 1.136639 0.463425 4.241972
v 2.195811 0.463425 3.803249
v 3.105333 0.463425 3.105333
v 3.803249 0.463425 2.195811
v 4.241972 0.463425 1.136639
v 4.391621 0.463425 -0.000000
v 4.241972 0.463425 -1.136639
v 3.803249 0.463425 -2.195811
v 3.105333 0.463425 -3.105333
v 2.195811 0.463425 -3.803249
v 1.136639 0.463425 -4.241972
v -0.828084 -0.463425 -1.065398
v -1.065398 -0.463425 0.737178
v 0.737177 -0.463425 0.974492
v 0.974492 -0.463425 -0.828084
v -0.828084 0.463425 -1.065398
v -1.065398 0.463425 0.737177
v 0.737177 0.463425 0.974492
v 0.974492 0.463425 -0.828084
vn -0.0000 1.0000 -0.0000
vn 0.9659 -0.0000 -0.2588
vn 0.8660 -0.0000 -0.5000
vn 0.5000 -0.0000 0.8660
vn 0.7071 -0.0000 0.7071
vn -0.0000 -0.0000 -1.0000
vn -0.2588 -0.0000 -0.9659
vn 0.7071 -0.0000 -0.7071
vn 0.5000 -0.0000 -0.8660
vn 0.2588 -0.0000 -0.9659
vn 0.2588 -0.0000 0.9659
vn -0.8660 -0.0000 0.5000
vn -0.7071 -0.0000 0.7071
vn -0.9659 -0.0000 -0.2588
vn -1.0000 -0.0000 -0.0000
vn -0.5000 -0.0000 -0.8660
vn -0.7071 -0.0000 -0.7071
vn -0.2588 -0.0000 0.9659
vn -0.0000 -0.0000 1.0000
vn 0.9659 -0.0000 0.2588
vn 1.0000 -0.0000 -0.0000
vn -0.5000 -0.0000 0.8660
vn -0.9659 -0.0000 0.2588
vn -0.8660 -0.0000 -0.5000
vn 0.8660 -0.0000 0.5000
vn 0.9914 -0.0000 0.1305
vn 0.1305 -0.0000 -0.9914
vn -0.9914 -0.0000 -0.1305
vn -0.0000 -1.0000 -0.0000
vn -0.1305 -0.0000 0.9914
vt 0.829422 0.988099
vt 0.933153 0.149572
vt 0.540122 0.240165
vt 0.831773 0.918322
vt 0.522058 0.172751
vt 0.834123 0.848546
vt 0.487163 0.112310
vt 0.836475 0.778772
vt 0.437812 0.062960
vt 0.838828 0.709002
vt 0.377371 0.028063
vt 0.841183 0.639238
vt 0.309957 0.010000
vt 0.843538 0.569480
vt 0.240165 0.010000
vt 0.845894 0.499729
vt 0.172751 0.028064
vt 0.848249 0.429985
vt 0.112310 0.062959
vt 0.850605 0.360248
vt 0.062960 0.112310
vt 0.852961 0.290518
vt 0.028063 0.172751
vt 0.855317 0.220794
vt 0.010000 0.240165
vt 0.857672 0.151073
vt 0.890953 0.986015
vt 0.010000 0.309957
vt 0.894460 0.916306
vt 0.028063 0.377371
vt 0.897970 0.846599
vt 0.062959 0.437812
vt 0.901481 0.776892
vt 0.112310 0.487162
vt 0.904996 0.707186
vt 0.172751 0.522058
vt 0.908514 0.637482
vt 0.240165 0.540122
vt 0.912033 0.567778
vt 0.309957 0.540122
vt 0.915552 0.498074
vt 0.377371 0.522058
vt 0.919073 0.428372
vt 0.437812 0.487163
vt 0.922592 0.358671
vt 0.487162 0.437812
vt 0.926112 0.288970
vt 0.522058 0.377370
vt 0.929632 0.219270
vt 0.540122 0.309957
vt 0.532816 0.988852
vt 0.885834 0.990000
vt 0.989501 0.152418
vt 0.888184 0.920222
vt 0.465402 0.970789
vt 0.890533 0.850446
vt 0.404960 0.935893
vt 0.892882 0.780673
vt 0.355610 0.886542
vt 0.895232 0.710904
vt 0.320714 0.826101
vt 0.897582 0.641140
vt 0.302651 0.758688
vt 0.899932 0.571382
vt 0.302651 0.688896
vt 0.902282 0.501631
vt 0.320714 0.621482
vt 0.904631 0.431887
vt 0.355610 0.561040
vt 0.906982 0.362151
vt 0.404960 0.511690
vt 0.909333 0.292421
vt 0.465402 0.476794
vt 0.911685 0.222697
vt 0.532815 0.458731
vt 0.914038 0.152975
vt 0.947310 0.988850
vt 0.602607 0.458731
vt 0.950817 0.919142
vt 0.670021 0.476794
vt 0.954325 0.849437
vt 0.730462 0.511690
vt 0.957835 0.779732
vt 0.779813 0.561040
vt 0.961349 0.710028
vt 0.814709 0.621482
vt 0.964866 0.640326
vt 0.832772 0.688895
vt 0.968385 0.570623
vt 0.832773 0.758688
vt 0.971904 0.500920
vt 0.814709 0.826101
vt 0.975424 0.431218
vt 0.779813 0.886542
vt 0.978943 0.361516
vt 0.730462 0.935893
vt 0.982461 0.291815
vt 0.670021 0.970789
vt 0.985981 0.222116
vt 0.602608 0.988852
vt 0.031132 0.858748
vt 0.332784 0.216615
vt 0.144868 0.951676
vt 0.141814 0.858748
vt 0.030716 0.759146
vt 0.222102 0.216615
vt 0.141394 0.758203
vt 0.031159 0.858712
vt 0.222102 0.327297
vt 0.141841 0.858712
vt 0.332784 0.327298
vt 0.034186 0.951676
vt 0.031132 0.802324
vt 0.509266 0.781515
vt 0.144868 0.895252
vt 0.141814 0.802324
vt 0.030235 0.702725
vt 0.509266 0.670833
vt 0.140913 0.701781
vt 0.619948 0.670833
vt 0.031159 0.802288
vt 0.619948 0.781515
vt 0.141841 0.802288
vt 0.034186 0.895252
s 0
usemtl Material.001
f 25/51/1 26/55/1 48/100/1
f 20/41/2 21/43/3 44/91/2
f 45/93/3 44/91/2 21/43/3
f 15/31/4 16/33/5 39/81/4
f 40/83/5 39/81/4 16/33/5
f 1/1/6 2/4/7 25/52/6
f 26/54/7 25/52/6 2/4/7
f 22/45/8 23/47/9 46/95/8
f 47/97/9 46/95/8 23/47/9
f 21/43/3 22/45/8 45/93/3
f 46/95/8 45/93/3 22/45/8
f 23/47/9 24/49/10 47/97/9
f 48/99/10 47/97/9 24/49/10
f 14/29/11 15/31/4 38/79/11
f 39/81/4 38/79/11 15/31/4
f 9/18/12 10/20/13 33/68/12
f 34/70/13 33/68/12 10/20/13
f 6/12/14 7/14/15 30/62/14
f 31/64/15 30/62/14 7/14/15
f 3/6/16 4/8/17 27/56/16
f 28/58/17 27/56/16 4/8/17
f 2/4/7 3/6/16 26/54/7
f 27/56/16 26/54/7 3/6/16
f 12/24/18 13/26/19 36/74/18
f 37/76/19 36/74/18 13/26/19
f 18/37/20 19/39/21 42/87/20
f 43/89/21 42/87/20 19/39/21
f 13/27/19 14/29/11 37/77/19
f 38/79/11 37/77/19 14/29/11
f 10/20/13 11/22/22 34/70/13
f 35/72/22 34/70/13 11/22/22
f 7/14/15 8/16/23 31/64/15
f 32/66/23 31/64/15 8/16/23
f 19/39/21 20/41/2 43/89/21
f 44/91/2 43/89/21 20/41/2
f 4/8/17 5/10/24 28/58/17
f 29/60/24 28/58/17 5/10/24
f 16/33/5 17/35/25 40/83/5
f 41/85/25 40/83/5 17/35/25
f 11/22/22 12/24/18 35/72/22
f 36/74/18 35/72/22 12/24/18
f 8/16/23 9/18/12 32/66/23
f 33/68/12 32/66/23 9/18/12
f 5/10/24 6/12/14 29/60/24
f 30/62/14 29/60/24 6/12/14
f 17/35/25 18/37/20 41/85/25
f 42/87/20 41/85/25 18/37/20
f 24/49/10 1/2/6 48/99/10
f 25/53/6 48/99/10 1/2/6
f 50/104/26 49/101/26 54/116/26
f 53/113/26 54/116/26 49/101/26
f 51/107/27 50/105/27 55/119/27
f 54/117/27 55/119/27 50/105/27
f 54/118/1 33/69/1 34/71/1
f 32/67/1 33/69/1 54/118/1
f 32/67/1 54/118/1 53/114/1
f 54/118/1 34/71/1 35/73/1
f 55/120/1 54/118/1 35/73/1
f 55/120/1 35/73/1 36/75/1
f 55/120/1 36/75/1 37/78/1
f 55/120/1 37/78/1 38/80/1
f 55/120/1 38/80/1 39/82/1
f 55/120/1 39/82/1 40/84/1
f 55/120/1 40/84/1 41/86/1
f 56/122/1 55/120/1 41/86/1
f 31/65/1 32/67/1 53/114/1
f 30/63/1 31/65/1 53/114/1
f 29/61/1 30/63/1 53/114/1
f 28/59/1 29/61/1 53/114/1
f 27/57/1 28/59/1 53/114/1
f 26/55/1 27/57/1 53/114/1
f 48/100/1 26/55/1 53/114/1
f 48/100/1 53/114/1 56/122/1
f 47/98/1 48/100/1 56/122/1
f 46/96/1 47/98/1 56/122/1
f 46/96/1 56/122/1 41/86/1
f 45/94/1 46/96/1 41/86/1
f 45/94/1 41/86/1 42/88/1
f 44/92/1 45/94/1 42/88/1
f 42/88/1 43/90/1 44/92/1
f 52/110/28 51/108/28 56/123/28
f 55/121/28 56/123/28 51/108/28
f 16/34/29 15/32/29 51/109/29
f 51/109/29 15/32/29 14/30/29
f 50/106/29 51/109/29 14/30/29
f 17/36/29 16/34/29 51/109/29
f 17/36/29 51/109/29 52/111/29
f 18/38/29 17/36/29 52/111/29
f 19/40/29 18/38/29 52/111/29
f 20/42/29 19/40/29 52/111/29
f 21/44/29 20/42/29 52/111/29
f 22/46/29 21/44/29 52/111/29
f 23/48/29 22/46/29 52/111/29
f 23/48/29 52/111/29 49/102/29
f 24/50/29 23/48/29 49/102/29
f 1/3/29 24/50/29 49/102/29
f 2/5/29 1/3/29 49/102/29
f 3/7/29 2/5/29 49/102/29
f 4/9/29 3/7/29 49/102/29
f 5/11/29 4/9/29 49/102/29
f 5/11/29 49/102/29 50/106/29
f 6/13/29 5/11/29 50/106/29
f 7/15/29 6/13/29 50/106/29
f 8/17/29 7/15/29 50/106/29
f 9/19/29 8/17/29 50/106/29
f 9/19/29 50/106/29 14/30/29
f 9/19/29 14/30/29 13/28/29
f 9/19/29 13/28/29 12/25/29
f 9/19/29 12/25/29 11/23/29
f 11/23/29 10/21/29 9/19/29
f 49/103/30 52/112/30 53/115/30
f 56/124/30 53/115/30 52/112/30
