# Blender 3.5.1
# www.blender.org
mtllib Wall2.mtl
o MRG
v -3.224637 0.388561 0.082006
v -3.223901 0.388561 0.022422
v 3.220242 0.388562 0.033319
v 3.219506 0.388562 0.092904
v -3.224637 0.467013 0.082006
v -3.223901 0.467013 0.022422
v 3.220242 0.467014 0.033319
v 3.219506 0.467014 0.092904
v -3.223901 -0.827444 0.022422
v -3.223165 -0.827444 -0.037163
v 3.220979 -0.827444 -0.026265
v 3.220242 -0.827444 0.033319
v -3.223717 0.757286 0.007526
v -3.223349 0.757286 -0.022266
v 3.220795 0.757286 -0.011369
v 3.220427 0.757286 0.018423
v 3.219145 -0.827444 0.122100
v 3.222092 -0.827444 -0.116238
v 3.866506 -0.827444 -0.115148
v 3.863560 -0.827444 0.123190
v 3.219145 1.055404 0.122100
v 3.222091 1.055404 -0.116238
v 3.866506 1.055404 -0.115148
v 3.863560 1.055404 0.123190
v 3.230124 0.634725 -0.085836
v 3.229389 0.634725 -0.026251
v 0.226998 -0.827446 -0.031328
v 0.227734 -0.827446 -0.090913
v 3.227837 0.744564 -0.085839
v 3.227101 0.744564 -0.026255
v -0.001293 -0.827446 -0.031714
v -0.000556 -0.827446 -0.091299
v -3.225385 -0.827444 0.111202
v -3.222439 -0.827444 -0.127136
v -3.866853 -0.827445 -0.128226
v -3.869799 -0.827445 0.110113
v -3.225385 1.055403 0.111202
v -3.222440 1.055403 -0.127136
v -3.866853 1.055403 -0.128226
v -3.869800 1.055403 0.110113
v -3.231224 0.634725 -0.096762
v -3.231961 0.634725 -0.037178
v -0.229583 -0.827446 -0.032100
v -0.228846 -0.827446 -0.091685
v -3.228969 0.744564 -0.096758
v -3.229705 0.744564 -0.037174
v -3.224637 -0.552862 0.082006
v -3.223901 -0.552862 0.022422
v 3.220242 -0.552862 0.033319
v 3.219506 -0.552862 0.092904
v -3.224637 -0.474411 0.082006
v -3.223901 -0.474411 0.022422
v 3.220242 -0.474410 0.033319
v 3.219506 -0.474410 0.092904
v 3.220979 0.741596 -0.026265
v -3.223165 0.741595 -0.037163
v 3.220242 0.741596 0.033319
v -3.223901 0.741595 0.022422
vn -0.0000 -1.0000 -0.0000
vn -0.7071 -0.7071 -0.0012
vn -0.0034 -0.7071 0.7071
vn 0.7058 -0.0086 0.7083
vn 0.0043 -0.7071 0.7071
vn -0.0012 0.7071 0.7071
vn -0.7070 0.7071 -0.0077
vn -0.0000 1.0000 -0.0000
vn -0.0037 0.7071 0.7071
vn -0.9999 -0.0000 -0.0124
vn 0.0017 -0.0000 -1.0000
vn 0.9999 -0.0000 0.0124
vn -0.0017 -0.0000 1.0000
vn 0.4378 -0.8990 0.0054
vn 0.2359 -0.4910 -0.8386
vn 0.2425 -0.4896 -0.8376
vn -0.3912 0.8083 -0.4401
vn 0.2992 -0.4508 -0.8410
vn -0.4684 0.7686 -0.4357
vn -0.3944 0.8069 -0.4398
vn -0.4378 0.8991 -0.0054
vn -0.3904 0.8064 -0.4443
vn -0.0016 0.9662 -0.2577
vn -0.0000 0.9662 0.2577
vn 0.0013 0.9662 -0.2577
vn -0.2296 -0.4839 -0.8444
vn -0.4378 -0.8990 -0.0054
vn -0.2316 -0.4848 -0.8434
vn -0.2963 -0.4508 -0.8420
vn 0.3925 0.8084 -0.4387
vn 0.4699 0.7686 -0.4341
vn 0.4378 0.8991 0.0054
vn 0.3977 0.8105 -0.4300
vn 0.3962 0.8088 -0.4345
vn 0.0059 -0.1239 -0.9923
vn 0.0008 0.9221 -0.3869
vn -0.0003 0.9221 -0.3869
vn 0.0016 0.9221 0.3869
vn -0.0016 -0.1239 0.9923
vn -0.0036 -0.1239 0.9923
vn 0.0009 0.0124 -0.9999
vn 0.0017 0.0124 -0.9999
vn -0.0024 0.0124 0.9999
vn -0.0017 0.0124 0.9999
vn 0.0036 -0.7071 0.7071
vn -0.0067 0.7071 0.7071
vn -0.0012 -0.7071 0.7071
vn -0.7082 0.0086 0.7059
vn 0.0032 0.7071 0.7071
vn 0.2321 -0.4928 -0.8386
vn -0.4672 0.7668 -0.4402
vn 0.3029 -0.4502 -0.8400
vn 0.2371 -0.4861 -0.8411
vn -0.3959 0.8061 -0.4397
vn -0.0000 0.9662 -0.2577
vn -0.0013 0.9662 0.2577
vn 0.0016 0.9662 0.2577
vn -0.2208 -0.4883 -0.8443
vn -0.2342 -0.4861 -0.8419
vn -0.3000 -0.4502 -0.8410
vn 0.4686 0.7668 -0.4386
vn 0.4019 0.8085 -0.4299
vn 0.0016 -0.1239 -0.9923
vn 0.0036 -0.1239 -0.9923
vn -0.0016 0.9221 -0.3869
vn -0.0008 0.9221 0.3869
vn 0.0004 0.9221 0.3869
vn -0.0059 -0.1239 0.9923
vn -0.0000 0.0123 -0.9999
vn -0.0034 0.0123 0.9999
vt 0.816118 0.890227
vt 0.816114 0.910378
vt 0.012820 0.910378
vt 0.012817 0.890227
vt 0.816114 0.870073
vt 0.816113 0.849927
vt 0.012810 0.849927
vt 0.012813 0.870073
vt 0.816974 0.836219
vt 0.816764 0.009972
vt 0.013217 0.010243
vt 0.013426 0.836357
vt 0.817040 0.428116
vt 0.817037 0.418075
vt 0.013186 0.418279
vt 0.013191 0.428320
vt 0.992542 0.009977
vt 0.823790 0.009977
vt 0.912075 0.009978
vt 0.992622 0.505111
vt 0.912156 0.505111
vt 0.904257 0.505021
vt 0.823790 0.505021
vt 0.904257 0.009977
vt 0.992542 0.492758
vt 0.223733 0.915767
vt 0.823790 0.492762
vt 0.992621 0.987898
vt 0.912075 0.492756
vt 0.143267 0.915767
vt 0.904257 0.987808
vt 0.912156 0.987908
vt 0.143267 0.996233
vt 0.904257 0.492761
vt 0.823790 0.987809
vt 0.223733 0.996233
vt 0.790406 0.963109
vt 0.790395 0.983158
vt 0.258311 0.983158
vt 0.258300 0.963109
vt 0.810210 0.943060
vt 0.810199 0.923012
vt 0.238034 0.923012
vt -0.761966 0.923012
vt 0.238024 0.943060
vt -0.761976 0.943060
vt -0.007458 0.009977
vt -0.176210 0.009977
vt -0.087925 0.009978
vt -0.007378 0.505111
vt -0.087844 0.505111
vt -0.095743 0.505021
vt -0.176210 0.505021
vt -0.095743 0.009977
vt -0.007458 0.492758
vt -0.776267 0.915767
vt -0.176210 0.492762
vt -0.007379 0.987898
vt -0.087925 0.492756
vt -0.856733 0.915767
vt -0.095743 0.987808
vt -0.087844 0.987908
vt -0.856733 0.996233
vt -0.095743 0.492761
vt -0.176210 0.987809
vt -0.776267 0.996233
vt -0.209594 0.963109
vt -0.209605 0.983158
vt -0.741689 0.983158
vt -0.741700 0.963109
vt -0.189790 0.943060
vt -0.189801 0.923012
vt -0.183882 0.891227
vt -0.183886 0.911378
vt -0.987180 0.911378
vt -0.987183 0.891227
vt -0.183886 0.871073
vt -0.183887 0.850927
vt -0.987190 0.850927
vt -0.987187 0.871073
vt 0.013183 0.411850
vt 0.817032 0.411645
vt 0.013196 0.434750
vt 0.817039 0.434545
s 0
usemtl Default
f 2/2/1 4/4/2 1/1/3
f 5/5/4 4/4/5 8/8/6
f 8/8/7 6/6/8 5/5/9
f 22/29/10 17/17/10 21/25/10
f 23/32/11 18/20/11 22/28/11
f 24/35/12 19/22/12 23/31/12
f 21/27/13 20/24/13 24/34/13
f 24/36/8 22/30/8 21/26/8
f 26/38/14 28/40/15 25/37/16
f 29/41/17 28/40/18 32/45/19
f 32/45/20 30/42/21 29/41/22
f 14/14/23 16/16/24 15/15/25
f 33/47/12 38/59/12 37/55/12
f 34/50/11 39/62/11 38/58/11
f 35/52/10 40/65/10 39/61/10
f 36/54/13 37/57/13 40/64/13
f 38/60/8 40/66/8 37/56/8
f 44/70/26 42/68/27 41/67/28
f 44/70/29 45/71/30 32/46/31
f 46/72/32 32/46/33 45/71/34
f 48/74/1 50/76/2 47/73/3
f 51/77/4 50/76/5 54/80/6
f 54/80/7 52/78/8 51/77/9
f 55/81/35 14/14/36 15/15/37
f 16/16/38 58/84/39 57/83/40
f 11/11/11 56/82/41 55/81/42
f 58/84/43 12/12/13 57/83/44
f 2/2/1 3/3/1 4/4/45
f 5/5/46 1/1/47 4/4/48
f 8/8/49 7/7/8 6/6/8
f 22/29/10 18/19/10 17/17/10
f 23/32/11 19/21/11 18/20/11
f 24/35/12 20/23/12 19/22/12
f 21/27/13 17/18/13 20/24/13
f 24/36/8 23/33/8 22/30/8
f 26/38/14 27/39/14 28/40/50
f 29/41/51 25/37/52 28/40/53
f 32/45/54 31/43/21 30/42/21
f 14/14/55 13/13/56 16/16/57
f 33/47/12 34/49/12 38/59/12
f 34/50/11 35/51/11 39/62/11
f 35/52/10 36/53/10 40/65/10
f 36/54/13 33/48/13 37/57/13
f 38/60/8 39/63/8 40/66/8
f 44/70/58 43/69/27 42/68/27
f 44/70/59 41/67/60 45/71/61
f 46/72/32 31/44/32 32/46/62
f 48/74/1 49/75/1 50/76/45
f 51/77/46 47/73/47 50/76/48
f 54/80/49 53/79/8 52/78/8
f 55/81/63 56/82/64 14/14/65
f 16/16/66 13/13/67 58/84/68
f 11/11/11 10/10/11 56/82/69
f 58/84/70 9/9/13 12/12/13
