# Blender 3.5.1
# www.blender.org
mtllib sccar.mtl
o Soccer_Ball
v 0.081991 -0.074080 0.018882
v 0.064843 -0.088992 -0.020636
v 0.045326 -0.100644 0.018881
v 0.095994 -0.054862 -0.018881
v 0.073333 -0.062204 -0.056641
v 0.022662 -0.107987 -0.018880
v 0.036667 -0.088766 -0.056641
v 0.040074 -0.055001 -0.087412
v 0.073333 -0.023761 -0.079979
v 0.000001 -0.076887 -0.079978
v 0.036666 -0.011882 -0.103316
v 0.000000 -0.038444 -0.103315
v 0.064842 0.021005 -0.087413
v 0.095995 0.007338 -0.056642
v 0.022661 0.031098 -0.103317
v -0.040073 -0.055001 -0.087412
v -0.036665 -0.088767 -0.056641
v -0.036666 -0.011882 -0.103316
v 0.045323 0.062200 -0.079980
v 0.081991 0.050319 -0.056643
v 0.000001 0.067981 -0.087414
v -0.022661 0.031098 -0.103317
v -0.045322 0.062200 -0.079980
v -0.064841 0.021005 -0.087413
v -0.073332 -0.023762 -0.079979
v -0.073332 -0.062203 -0.056641
v -0.022661 0.107987 0.018882
v -0.064842 0.088992 0.020636
v -0.045322 0.100646 -0.018881
v -0.036667 0.088766 0.056641
v -0.081988 0.074083 -0.018881
v -0.095994 0.054861 0.018881
v -0.073332 0.062204 0.056641
v -0.040074 0.055002 0.087411
v -0.000000 0.076887 0.079978
v -0.073332 0.023763 0.079978
v -0.000001 0.038445 0.103315
v -0.036667 0.011883 0.103315
v 0.040073 0.055002 0.087412
v 0.036666 0.088766 0.056641
v 0.036665 0.011883 0.103316
v -0.064842 -0.021004 0.087413
v -0.095994 -0.007340 0.056642
v -0.022662 -0.031097 0.103317
v 0.073332 0.023762 0.079979
v 0.073331 0.062205 0.056642
v 0.064841 -0.021004 0.087414
v 0.022660 -0.031098 0.103317
v 0.045323 -0.062199 0.079981
v -0.000000 -0.067980 0.087415
v -0.045323 -0.062199 0.079980
v -0.081990 -0.050319 0.056643
v -0.104917 -0.033991 0.020636
v -0.081989 -0.074082 0.018881
v -0.110000 0.011878 0.018881
v -0.095995 -0.054860 -0.018881
v -0.110000 -0.011880 -0.018880
v 0.064843 0.088992 0.020636
v 0.022665 0.107987 0.018882
v 0.095994 0.054863 0.018881
v 0.045326 0.100644 -0.018881
v 0.081992 0.074080 -0.018881
v -0.064841 -0.088992 -0.020636
v -0.022660 -0.107988 -0.018881
v -0.045321 -0.100646 0.018881
v -0.022660 0.093302 -0.056643
v 0.022664 0.093302 -0.056643
v 0.000002 0.110000 -0.020636
v -0.095994 0.007339 -0.056642
v -0.081989 0.050321 -0.056642
v -0.104917 0.033991 -0.020636
v 0.104918 0.033990 -0.020636
v 0.110000 -0.011885 -0.018881
v 0.110000 0.011886 0.018881
v 0.081990 -0.050319 0.056643
v 0.095995 -0.007337 0.056642
v 0.104918 -0.033990 0.020636
v 0.022663 -0.093302 0.056643
v -0.022661 -0.093302 0.056643
v 0.000001 -0.110000 0.020636
v -0.095536 0.030954 0.049195
v 0.000001 -0.100165 -0.049194
v 0.095536 -0.030955 -0.049194
v 0.000001 0.100165 0.049195
v -0.059044 0.081035 -0.049195
v 0.059047 -0.081033 0.049196
v 0.095535 0.030957 0.049195
v -0.059045 -0.081034 0.049195
v 0.059047 0.081033 -0.049196
v -0.095536 -0.030954 -0.049194
v -0.000001 0.000004 0.110000
v 0.000000 -0.000003 -0.110000
vn 0.7347 -0.6583 0.1639
vn 0.3971 -0.9031 0.1637
vn 0.5760 -0.7949 -0.1907
vn 0.8519 -0.4974 -0.1640
vn 0.6404 -0.5626 -0.5228
vn 0.2082 -0.9643 -0.1637
vn 0.3355 -0.7839 -0.5224
vn 0.3524 -0.4863 -0.7996
vn 0.6374 -0.2077 -0.7420
vn -0.0000 -0.6713 -0.7412
vn 0.3321 -0.1082 -0.9370
vn -0.0000 -0.3501 -0.9367
vn 0.5705 0.1858 -0.8000
vn 0.8486 0.0778 -0.5233
vn 0.2053 0.2832 -0.9368
vn -0.3524 -0.4863 -0.7996
vn -0.3355 -0.7839 -0.5224
vn -0.3322 -0.1082 -0.9370
vn 0.3937 0.5433 -0.7415
vn 0.7318 0.4369 -0.5230
vn -0.0000 0.6009 -0.7993
vn -0.2053 0.2832 -0.9368
vn -0.3937 0.5433 -0.7415
vn -0.5705 0.1858 -0.8000
vn -0.6374 -0.2077 -0.7420
vn -0.6404 -0.5626 -0.5228
vn -0.2082 0.9643 0.1637
vn -0.3970 0.9031 -0.1637
vn -0.5760 0.7949 0.1907
vn -0.3355 0.7839 0.5224
vn -0.7347 0.6583 -0.1639
vn -0.8519 0.4973 0.1640
vn -0.6404 0.5626 0.5228
vn -0.3524 0.4863 0.7996
vn -0.0000 0.6713 0.7412
vn -0.6374 0.2077 0.7420
vn -0.0000 0.3501 0.9367
vn -0.3322 0.1082 0.9370
vn 0.3524 0.4863 0.7996
vn 0.3355 0.7839 0.5224
vn 0.3321 0.1082 0.9370
vn -0.5705 -0.1858 0.8000
vn -0.8486 -0.0778 0.5233
vn -0.2053 -0.2832 0.9368
vn 0.6374 0.2077 0.7420
vn 0.6404 0.5626 0.5229
vn 0.5705 -0.1858 0.8000
vn 0.2053 -0.2832 0.9368
vn 0.3937 -0.5433 0.7415
vn -0.0000 -0.6009 0.7994
vn -0.3937 -0.5433 0.7415
vn -0.7318 -0.4370 0.5230
vn -0.9333 -0.3040 0.1909
vn -0.7347 -0.6583 0.1639
vn -0.9814 0.0997 0.1641
vn -0.8519 -0.4973 -0.1640
vn -0.9814 -0.0997 -0.1641
vn 0.5760 0.7949 0.1907
vn 0.2082 0.9643 0.1637
vn 0.8519 0.4974 0.1640
vn 0.3971 0.9031 -0.1637
vn 0.7347 0.6583 -0.1639
vn -0.5760 -0.7949 -0.1907
vn -0.2082 -0.9643 -0.1637
vn -0.3970 -0.9031 0.1637
vn -0.1881 0.8317 -0.5224
vn 0.1881 0.8317 -0.5224
vn -0.0000 0.9817 -0.1905
vn -0.8486 0.0778 -0.5233
vn -0.7318 0.4370 -0.5230
vn -0.9333 0.3040 -0.1909
vn 0.9333 0.3040 -0.1910
vn 0.9814 -0.0998 -0.1641
vn 0.9814 0.0998 0.1641
vn 0.7318 -0.4369 0.5230
vn 0.8486 -0.0777 0.5233
vn 0.9333 -0.3040 0.1910
vn 0.1881 -0.8317 0.5224
vn -0.1881 -0.8317 0.5224
vn -0.0000 -0.9817 0.1905
vn -0.8472 0.2760 0.4540
vn -0.0000 -0.8915 -0.4531
vn 0.8472 -0.2760 -0.4540
vn -0.0000 0.8914 0.4531
vn -0.5230 0.7217 -0.4535
vn 0.5230 -0.7217 0.4535
vn 0.8472 0.2760 0.4540
vn -0.5230 -0.7217 0.4535
vn 0.5230 0.7217 -0.4535
vn -0.8472 -0.2760 -0.4540
vn -0.0000 -0.0000 1.0000
vn -0.0000 -0.0000 -1.0000
vt 0.960712 0.156146
vt 0.608242 0.434132
vt 0.928676 0.639555
vt 0.889386 0.098098
vt 0.889386 0.248633
vt 0.389176 0.328299
vt 0.904920 0.190589
vt 0.960712 0.190589
vt 0.524091 0.644931
vt 0.986948 0.669660
vt 0.960712 0.060850
vt 0.662901 0.355881
vt 0.657192 0.843558
vt 0.904928 0.000000
vt 0.460501 0.327356
vt 0.353803 0.524327
vt 0.736399 0.867481
vt 0.960712 0.285889
vt 0.608242 0.599428
vt 0.821572 0.903611
vt 0.904920 0.346735
vt 0.392376 0.257391
vt 0.299737 0.524327
vt 0.904349 0.903611
vt 0.479778 0.240943
vt 0.549581 0.309299
vt 0.353803 0.614786
vt 0.736399 0.964170
vt 0.413327 0.169369
vt 0.239632 0.592193
vt 0.932571 0.811090
vt 0.566939 0.223766
vt 0.499809 0.154789
vt 0.644061 0.276632
vt 0.166876 0.890290
vt 0.615090 0.355881
vt 0.163010 0.823646
vt 0.657194 1.000000
vt 0.648783 0.183416
vt 0.449126 0.076435
vt 0.889386 0.000000
vt 0.368608 0.102741
vt 0.885519 0.066642
vt 0.867237 0.753909
vt 0.542922 0.074651
vt 0.722513 0.226414
vt 0.798638 0.838936
vt 0.722513 0.266768
vt 0.701560 0.314439
vt 0.079574 0.855848
vt 0.762735 0.354787
vt 0.722513 0.126874
vt 0.698939 0.843558
vt 0.633955 0.092285
vt 0.693137 0.035253
vt 0.608250 0.818061
vt 0.015535 0.641576
vt 0.990843 0.753909
vt 0.602033 0.003144
vt 0.000000 0.549086
vt 0.502046 0.000000
vt 0.015539 0.450986
vt 0.412969 0.018055
vt 0.802084 0.034445
vt 0.065210 0.367885
vt 1.000000 0.416726
vt 0.662909 0.599719
vt 0.928674 0.490344
vt 0.928674 0.453980
vt 0.535479 0.758419
vt 0.035269 0.039589
vt 1.000000 0.512025
vt 0.551016 0.665927
vt 0.608242 0.677968
vt 0.932571 0.881439
vt 0.944213 0.355881
vt 0.038469 0.110495
vt 0.848310 0.510070
vt 0.606806 0.700373
vt 0.155478 0.656932
vt 0.990843 0.911542
vt 0.606806 0.795672
vt 0.239632 0.611433
vt 0.928673 0.619448
vt 0.551015 0.856517
vt 0.106594 0.040531
vt 0.848308 0.599719
vt 0.125852 0.126953
vt 0.059421 0.198518
vt 0.798641 0.426967
vt 0.195671 0.058585
vt 0.798638 0.682819
vt 0.145897 0.213111
vt 0.213023 0.144099
vt 0.095222 0.291450
vt 0.333742 0.890298
vt 0.014704 0.265146
vt 0.329877 0.823656
vt 0.848309 0.355881
vt 0.189021 0.293238
vt 0.290155 0.091252
vt 0.535479 0.665927
vt 0.261188 0.012004
vt 0.531614 0.732569
vt 0.848306 0.753909
vt 0.294879 0.184458
vt 0.148143 0.367885
vt 0.798641 0.595092
vt 0.367791 0.500411
vt 0.059062 0.349828
vt 0.246445 0.855849
vt 0.367791 0.403721
vt 0.248127 0.364740
vt 0.698946 0.599719
vt 0.280051 0.275584
vt 0.339232 0.332631
vt 0.608254 0.574225
vt 0.384146 0.629578
vt 0.986948 0.512025
vt 0.368608 0.241011
vt 0.368608 0.537089
vt 0.368608 0.141469
vt 0.384145 0.438987
vt 0.347653 0.053444
vt 0.448180 0.700376
vt 0.433814 0.355881
vt 0.452057 0.789346
vt 0.368608 0.757146
vt 0.726378 0.180173
vt 0.520305 0.365369
vt 0.535479 0.821528
vt 0.239632 0.516133
vt 0.928673 0.714748
vt 0.372479 0.846113
vt 0.722513 0.091207
vt 0.151696 0.377375
vt 0.455914 0.878302
vt 0.155480 0.466338
vt 0.250328 0.766901
vt 0.333742 0.734699
vt 0.758110 0.610157
vt 0.928674 0.395042
vt 0.166876 0.799081
vt 0.003854 0.710122
vt 0.288582 0.367885
vt 0.254173 0.677926
vt 0.798638 0.698845
vt 0.863303 0.266770
vt 0.170738 0.710119
vt 0.000000 0.799084
vt 0.849750 0.354787
vt 0.805952 0.123399
vt 0.889386 0.155603
vt 0.608242 0.504133
vt 0.798638 0.811089
vt 0.809816 0.212371
vt 0.524089 0.454338
vt 0.648771 0.766655
vt 0.932571 0.784014
vt 0.743968 0.777092
vt 0.784667 0.212371
vt 0.703455 0.688405
vt 0.082769 0.513419
vt 0.084826 0.596801
vt 0.162986 0.560531
vt 0.083429 0.766888
vt 0.166876 0.734682
vt 0.758087 0.366315
vt 0.608242 0.925455
vt 0.087281 0.677926
vt 0.798641 0.455003
vt 0.239632 0.442419
vt 0.648776 0.522817
vt 0.928674 0.542130
vt 0.743974 0.533251
vt 0.288586 0.524327
vt 0.703435 0.444570
vt 0.453450 0.584823
vt 0.451378 0.501419
vt 0.531603 0.548533
vt 0.177506 0.000000
vt 0.863072 0.671498
vt 0.299737 0.605698
vt 0.872736 0.837441
vt 0.299737 0.585373
vt 0.686836 0.921659
vt 0.000000 0.182302
vt 0.863074 0.438291
vt 0.085969 0.677926
vt 0.986237 0.832725
vt 0.454581 0.665927
vt 0.982342 0.590841
vt 0.310478 0.447743
vt 0.460922 0.423169
vt 0.796592 0.291088
vt 0.092309 0.435185
vt 0.224283 0.221820
vt 0.578179 0.146074
s 1
usemtl White_Ball_Material
f 1/1/1 3/7/2 2/4/3
f 4/11/4 1/1/1 2/4/3
f 5/14/5 4/11/4 2/4/3
f 3/8/2 6/18/6 2/5/3
f 6/18/6 7/21/7 2/5/3
f 7/22/7 5/15/5 2/6/3
f 5/15/5 7/22/7 8/25/8
f 9/26/9 5/15/5 8/25/8
f 7/22/7 10/29/10 8/25/8
f 11/32/11 9/26/9 8/25/8
f 10/29/10 12/33/12 8/25/8
f 12/33/12 11/32/11 8/25/8
f 9/26/9 11/32/11 13/34/13
f 14/36/14 9/26/9 13/34/13
f 11/32/11 15/39/15 13/34/13
f 12/33/12 10/29/10 16/40/16
f 10/29/10 17/42/17 16/40/16
f 18/45/18 12/33/12 16/40/16
f 15/39/15 19/46/19 13/34/13
f 19/46/19 20/49/20 13/34/13
f 19/46/19 15/39/15 21/52/21
f 15/39/15 22/54/22 21/52/21
f 22/54/22 23/55/23 21/52/21
f 23/55/23 22/54/22 24/59/24
f 22/54/22 18/45/18 24/59/24
f 18/45/18 25/61/25 24/59/24
f 25/61/25 18/45/18 16/40/16
f 26/63/26 25/61/25 16/40/16
f 27/66/27 29/72/28 28/69/29
f 30/76/30 27/66/27 28/69/29
f 29/73/28 31/79/31 28/70/29
f 31/79/31 32/82/32 28/70/29
f 32/82/32 33/85/33 28/70/29
f 33/86/33 30/77/30 28/71/29
f 30/77/30 33/86/33 34/88/34
f 35/89/35 30/77/30 34/88/34
f 33/86/33 36/91/36 34/88/34
f 37/93/37 35/89/35 34/88/34
f 36/91/36 38/94/38 34/88/34
f 38/94/38 37/93/37 34/88/34
f 35/89/35 37/93/37 39/95/39
f 40/97/40 35/89/35 39/95/39
f 37/93/37 41/100/41 39/95/39
f 38/94/38 36/91/36 42/101/42
f 36/91/36 43/103/43 42/101/42
f 44/106/44 38/94/38 42/101/42
f 41/100/41 45/107/45 39/95/39
f 45/107/45 46/110/46 39/95/39
f 45/107/45 41/100/41 47/113/47
f 41/100/41 48/115/48 47/113/47
f 48/115/48 49/116/49 47/113/47
f 49/116/49 48/115/48 50/120/50
f 48/115/48 44/106/44 50/120/50
f 44/106/44 51/122/51 50/120/50
f 51/122/51 44/106/44 42/101/42
f 52/124/52 51/122/51 42/101/42
f 43/104/43 52/125/52 42/102/42
f 52/125/52 43/104/43 53/127/53
f 54/128/54 52/125/52 53/127/53
f 43/104/43 55/131/55 53/127/53
f 56/134/56 54/128/54 53/127/53
f 55/131/55 57/137/57 53/127/53
f 57/137/57 56/134/56 53/127/53
f 46/111/46 40/98/40 39/96/39
f 40/98/40 46/111/46 58/139/58
f 59/140/59 40/98/40 58/139/58
f 46/111/46 60/143/60 58/139/58
f 61/146/61 59/140/59 58/139/58
f 60/143/60 62/149/62 58/139/58
f 62/149/62 61/146/61 58/139/58
f 17/43/17 26/64/26 16/41/16
f 26/64/26 17/43/17 63/152/63
f 56/135/56 26/64/26 63/152/63
f 17/43/17 64/153/64 63/152/63
f 54/129/54 56/135/56 63/152/63
f 64/153/64 65/156/65 63/152/63
f 65/156/65 54/129/54 63/152/63
f 23/56/23 66/158/66 21/53/21
f 66/158/66 67/160/67 21/53/21
f 67/160/67 19/47/19 21/53/21
f 67/160/67 66/158/66 68/162/68
f 61/147/61 67/160/67 68/162/68
f 66/158/66 29/74/28 68/162/68
f 59/141/59 61/147/61 68/162/68
f 29/74/28 27/67/27 68/162/68
f 27/67/27 59/141/59 68/162/68
f 25/62/25 69/163/69 24/60/24
f 69/163/69 70/164/70 24/60/24
f 70/164/70 23/57/23 24/60/24
f 70/164/70 69/163/69 71/165/71
f 31/80/31 70/164/70 71/165/71
f 69/163/69 57/138/57 71/165/71
f 32/83/32 31/80/31 71/165/71
f 57/138/57 55/132/55 71/165/71
f 55/132/55 32/83/32 71/165/71
f 20/50/20 14/37/14 13/35/13
f 14/37/14 20/50/20 72/166/72
f 73/167/73 14/37/14 72/166/72
f 20/50/20 62/150/62 72/166/72
f 74/170/74 73/167/73 72/166/72
f 62/150/62 60/144/60 72/166/72
f 60/144/60 74/170/74 72/166/72
f 49/117/49 75/173/75 47/114/47
f 75/173/75 76/175/76 47/114/47
f 76/175/76 45/108/45 47/114/47
f 76/175/76 75/173/75 77/177/77
f 74/171/74 76/175/76 77/177/77
f 75/173/75 1/2/1 77/177/77
f 73/168/73 74/171/74 77/177/77
f 1/2/1 4/12/4 77/177/77
f 4/12/4 73/168/73 77/177/77
f 78/178/78 49/118/49 50/121/50
f 79/179/79 78/178/78 50/121/50
f 51/123/51 79/179/79 50/121/50
f 78/178/78 79/179/79 80/180/80
f 3/9/2 78/178/78 80/180/80
f 79/179/79 65/157/65 80/180/80
f 6/19/6 3/9/2 80/180/80
f 65/157/65 64/154/64 80/180/80
f 64/154/64 6/19/6 80/180/80
usemtl Black_Ball_Material
f 36/91/36 33/86/33 81/181/81
f 10/30/10 7/23/7 82/183/82
f 5/16/5 9/27/9 83/185/83
f 30/77/30 35/89/35 84/187/84
f 43/105/43 36/92/36 81/182/81
f 55/133/55 43/105/43 81/182/81
f 32/84/32 55/133/55 81/182/81
f 33/87/33 32/84/32 81/182/81
f 17/44/17 10/31/10 82/184/82
f 64/155/64 17/44/17 82/184/82
f 6/20/6 64/155/64 82/184/82
f 7/24/7 6/20/6 82/184/82
f 4/13/4 5/17/5 83/186/83
f 73/169/73 4/13/4 83/186/83
f 14/38/14 73/169/73 83/186/83
f 9/28/9 14/38/14 83/186/83
f 23/57/23 70/164/70 85/189/85
f 70/164/70 31/80/31 85/189/85
f 31/81/31 29/75/28 85/190/85
f 29/75/28 66/159/66 85/190/85
f 66/159/66 23/58/23 85/190/85
f 78/178/78 3/9/2 86/191/86
f 49/118/49 78/178/78 86/191/86
f 3/10/2 1/3/1 86/192/86
f 1/3/1 75/174/75 86/192/86
f 75/174/75 49/119/49 86/192/86
f 27/68/27 30/78/30 84/188/84
f 59/142/59 27/68/27 84/188/84
f 40/99/40 59/142/59 84/188/84
f 35/90/35 40/99/40 84/188/84
f 76/176/76 74/172/74 87/193/87
f 45/109/45 76/176/76 87/193/87
f 74/172/74 60/145/60 87/193/87
f 46/112/46 45/109/45 87/193/87
f 60/145/60 46/112/46 87/193/87
f 51/123/51 52/126/52 88/194/88
f 79/179/79 51/123/51 88/194/88
f 52/126/52 54/130/54 88/194/88
f 65/157/65 79/179/79 88/194/88
f 54/130/54 65/157/65 88/194/88
f 67/161/67 61/148/61 89/195/89
f 19/48/19 67/161/67 89/195/89
f 61/148/61 62/151/62 89/195/89
f 20/51/20 19/48/19 89/195/89
f 62/151/62 20/51/20 89/195/89
f 26/65/26 56/136/56 90/196/90
f 25/62/25 26/65/26 90/196/90
f 56/136/56 57/138/57 90/196/90
f 69/163/69 25/62/25 90/196/90
f 57/138/57 69/163/69 90/196/90
f 48/115/48 41/100/41 91/197/91
f 44/106/44 48/115/48 91/197/91
f 41/100/41 37/93/37 91/197/91
f 38/94/38 44/106/44 91/197/91
f 37/93/37 38/94/38 91/197/91
f 18/45/18 22/54/22 92/198/92
f 12/33/12 18/45/18 92/198/92
f 22/54/22 15/39/15 92/198/92
f 11/32/11 12/33/12 92/198/92
f 15/39/15 11/32/11 92/198/92
